<svg id="visual" viewBox="0 0 960 540" width="960" height="540" xmlns="http://www.w3.org/2000/svg" xmlns:xlink="http://www.w3.org/1999/xlink" version="1.1"><g transform="translate(72.43342533572371 537.4041872216216)"><path d="M185 -345.3C235.9 -290.9 270.8 -233.7 258.6 -175.7C246.5 -117.7 187.2 -58.8 190.4 1.8C193.6 62.5 259.2 125 267 175.5C274.8 226 224.9 264.6 170.8 319.8C116.7 375.1 58.3 447 14.1 422.6C-30.2 398.3 -60.3 277.5 -138.3 236C-216.2 194.5 -341.9 232.3 -389.2 206.1C-436.4 180 -405.2 90 -359.2 26.6C-313.1 -36.8 -252.3 -73.7 -195.6 -83.4C-138.8 -93.2 -86.3 -75.8 -54.4 -141.2C-22.5 -206.6 -11.3 -354.8 27.9 -403.1C67 -451.4 134 -399.8 185 -345.3" fill="#715DF2"></path></g></svg>