<svg id="visual" viewBox="0 0 900 600" width="900" height="600" xmlns="http://www.w3.org/2000/svg" xmlns:xlink="http://www.w3.org/1999/xlink" version="1.1"><g transform="translate(-3.527032868216793 655.8068176744009)"><path d="M146.3 -242.9C231.8 -172.7 372.4 -203.5 468.6 -163.8C564.7 -124.2 616.4 -14.1 570.6 59.4C524.8 132.8 381.4 169.5 291.8 227.7C202.3 285.9 166.5 365.6 106.6 400.1C46.7 434.7 -37.4 424.1 -89.5 376.2C-141.7 328.3 -161.9 243.1 -244.1 188.9C-326.3 134.7 -470.5 111.5 -536.4 41.3C-602.3 -29 -590 -146.4 -527.7 -223.7C-465.5 -300.9 -353.3 -338.1 -257 -403.3C-160.8 -468.5 -80.4 -561.7 -25 -522.9C30.4 -484 60.8 -313 146.3 -242.9" fill="#715DF2"></path></g></svg>