<svg id="visual" viewBox="0 0 900 600" width="900" height="600" xmlns="http://www.w3.org/2000/svg" xmlns:xlink="http://www.w3.org/1999/xlink" version="1.1"><g transform="translate(365.7031796322217 410.6698526845156)"><path d="M339.1 -516.7C441.5 -461.9 527.7 -371.2 556.3 -266.4C584.9 -161.7 555.7 -43 474.6 22.2C393.6 87.3 260.6 98.9 182.5 119.4C104.5 139.9 81.4 169.2 39.1 222.3C-3.1 275.4 -64.5 352.1 -116.6 355.7C-168.6 359.3 -211.3 289.7 -270.6 229.7C-330 169.8 -406 119.5 -397.8 67.3C-389.6 15 -297.1 -39.2 -261.7 -120.7C-226.4 -202.2 -248.1 -311 -214 -396.9C-179.9 -482.9 -89.9 -545.9 14.2 -568.1C118.4 -590.2 236.8 -571.5 339.1 -516.7" fill="#715DF2"></path></g></svg>