<svg id="visual" viewBox="0 0 900 600" width="900" height="600" xmlns="http://www.w3.org/2000/svg" xmlns:xlink="http://www.w3.org/1999/xlink" version="1.1"><g transform="translate(527.5004487178028 291.2134118842838)"><path d="M144.5 -213.5C199.2 -189.6 263.8 -169.8 269.2 -130.9C274.6 -92 220.8 -34 202.6 22.7C184.4 79.3 201.8 134.6 195.4 203.5C188.9 272.4 158.7 355 110.8 362.2C62.8 369.4 -2.8 301.3 -109.3 302C-215.7 302.8 -362.9 372.4 -397 340.1C-431.2 307.8 -352.2 173.5 -351.6 61.3C-351 -50.9 -428.8 -141.2 -424.4 -211.6C-420 -282.1 -333.2 -332.9 -248.8 -343.1C-164.4 -353.4 -82.2 -323.2 -18.7 -294.2C44.9 -265.2 89.7 -237.3 144.5 -213.5" fill="#715DF2"></path></g></svg>